<?xml version="1.0" ?><!DOCTYPE svg  PUBLIC '-//W3C//DTD SVG 1.1//EN'  'http://www.w3.org/Graphics/SVG/1.1/DTD/svg11.dtd'><svg enable-background="new 0 0 70 70" id="Layer_1" version="1.1" viewBox="0 0 70 70" xml:space="preserve" xmlns="http://www.w3.org/2000/svg" xmlns:xlink="http://www.w3.org/1999/xlink"><g><path d="M16.2539063,66.2783203c-0.3452148,0-0.6977539-0.0214844-1.0600586-0.0800781   c-2.5161133-0.4013672-2.6274414-3.6748047-2.7348633-6.8398438c-0.0634766-1.8603516,0.0078125-3.8164063,0.0761719-5.7089844   l0.0175781-0.484375c0.0263672-0.7314453-0.027832-2.4863281-1.0947266-2.9931641   c-0.2363281-0.1132813-0.5400391-0.1708984-0.8613281-0.2324219c-0.5581055-0.1064453-1.1904297-0.2265625-1.722168-0.6787109   c-1.1020508-0.9355469-0.9331055-2.4609375-0.6625977-3.6845703l4.1298828-18.6796875   c0.0898438-0.4033203,0.487793-0.65625,0.8945313-0.5703125c0.4042969,0.0898438,0.659668,0.4902344,0.5703125,0.8945313   L9.6767578,45.9003906c-0.1660156,0.7490234-0.3286133,1.7949219,0.1689453,2.2177734   c0.2304688,0.1953125,0.6015625,0.265625,1.0317383,0.3476563c0.3818359,0.0732422,0.8149414,0.1552734,1.2255859,0.3515625   c1.3354492,0.6347656,2.027832,2.1982422,1.9487305,4.4013672l-0.0175781,0.4853516   C13.9667969,55.5703125,13.8964844,57.5,13.9580078,59.3076172c0.1000977,2.9482422,0.2724609,5.2177734,1.4726563,5.4101563   c0.7216797,0.1123047,1.4428711,0.0439453,2.2070313-0.03125c0.5874023-0.0585938,1.1928711-0.1191406,1.8374023-0.0976563   l0.2270508,0.0078125c1.4130859,0.0498047,3.1650391,0.1083984,3.9267578-0.7421875   c0.5512695-0.6171875,0.5039063-1.7607422,0.4580078-2.8671875c-0.0131836-0.3056641-0.0253906-0.6054688-0.0253906-0.8886719   l-0.0063477-7.9511719c-0.0004883-0.7451172-0.0014648-2.4892578,1.2861328-3.2705078   c0.5683594-0.3447266,1.1796875-0.3730469,1.7197266-0.3984375c0.3339844-0.015625,0.6499023-0.0302734,0.894043-0.1191406   c0.6191406-0.2255859,0.9287109-1,0.9541016-1.6240234c0.0322266-0.7939453-0.2470703-1.6005859-0.5429688-2.4550781   c-1.9682617-5.6894531-3.4047852-11.5234375-4.2924805-17.40625c-0.0615234-0.4101563,0.2202148-0.7919922,0.6298828-0.8535156   c0.4072266-0.0644531,0.7919922,0.2197266,0.8535156,0.6289063c0.8740234,5.7939453,2.2880859,11.5371094,4.2036133,17.0732422   c0.3515625,1.015625,0.6914063,1.9960938,0.6474609,3.0732422c-0.046875,1.1445313-0.6645508,2.5078125-1.9399414,2.9736328   c-0.4594727,0.1669922-0.9257813,0.1884766-1.3374023,0.2080078c-0.4130859,0.0195313-0.7700195,0.0361328-1.012207,0.1826172   c-0.5,0.3027344-0.5639648,1.2207031-0.5634766,1.9863281l0.0063477,7.9501953c0,0.2646484,0.012207,0.5439453,0.0239258,0.8291016   c0.0556641,1.3398438,0.1186523,2.8583984-0.8388672,3.9287109c-1.2294922,1.3740234-3.4643555,1.2978516-5.0957031,1.2412109   l-0.2250977-0.0068359c-0.5463867-0.0224609-1.0771484,0.0351563-1.640625,0.0898438   C17.2871094,66.2275391,16.7792969,66.2783203,16.2539063,66.2783203z" fill="#373684"/><path d="M19.3637695,65.7392578c-0.3901367,0-0.7197266-0.3027344-0.7470703-0.6982422   c-0.2172852-3.1162109-0.1621094-6.0302734-0.1035156-9.1142578c0.0390625-2.0712891,0.0795898-4.2138672,0.0283203-6.4091797   c-0.0092773-0.4140625,0.3183594-0.7578125,0.7324219-0.7675781c0.4213867-0.0087891,0.7578125,0.3183594,0.7675781,0.7324219   c0.0517578,2.2275391,0.0107422,4.3857422-0.0288086,6.4726563c-0.0576172,3.0507813-0.1123047,5.9316406,0.1000977,8.9824219   c0.0288086,0.4130859-0.2827148,0.7714844-0.6958008,0.7998047C19.3989258,65.7382813,19.3813477,65.7392578,19.3637695,65.7392578   z" fill="#373684"/><path d="M9.3125,43.1875c-2.590332,0-3.6186523-1.2666016-4.0253906-2.328125   c-0.5283203-1.3789063-0.2509766-2.8691406-0.0058594-4.1845703c0.043457-0.2333984,0.0869141-0.4648438,0.125-0.6943359   c0.4980469-2.9775391,1.3466797-5.8759766,2.1679688-8.6796875C7.9116211,26.1494141,8.25,24.9931641,8.5678711,23.8242188   c0.5483398-2.0195313,1.4291992-3.4492188,2.6918945-4.3730469c1.5253906-1.1152344,3.4555664-1.2753906,5.0063477-1.4033203   c2.5683594-0.2128906,5.4794922-0.4541016,8.2470703,0.4003906c3.1425781,0.9746094,5.4228516,3.3574219,5.8105469,6.0703125   c0.0512695,0.3613281,0.0717773,0.7333984,0.0908203,1.1054688c0.0390625,0.7558594,0.0756836,1.4707031,0.4238281,1.9746094   c0.5732422,0.8320313,1.9042969,0.8994141,2.4428711,0.9101563c0.3740234-0.0019531,0.7485352-0.0292969,1.1225586-0.0556641   c0.7919922-0.0585938,1.6108398-0.1152344,2.4492188,0.0371094c1.4052734,0.2568359,2.8662109,1.3291016,2.9389648,2.8798828   c0.0654297,1.3769531-0.9755859,2.4580078-2.0361328,2.9189453c-1.0361328,0.4521484-2.1464844,0.4599609-3.1259766,0.4667969   c-0.6176758,0.0048828-1.2670898,0.0820313-1.9541016,0.1630859c-2.2739258,0.2646484-4.8496094,0.5703125-7.168457-1.6953125   c-0.2963867-0.2890625-0.3022461-0.7636719-0.0126953-1.0605469c0.2900391-0.2958984,0.765625-0.3007813,1.0605469-0.0117188   c1.8081055,1.765625,3.8168945,1.5292969,5.9448242,1.2773438c0.6972656-0.0820313,1.4179688-0.1669922,2.1181641-0.1728516   c0.8774414-0.0058594,1.7836914-0.0126953,2.5390625-0.3417969c0.5878906-0.2558594,1.1665039-0.84375,1.1367188-1.4736328   c-0.034668-0.7333984-0.8969727-1.3251953-1.7104492-1.4736328c-0.6518555-0.1210938-1.3417969-0.0703125-2.0727539-0.0175781   c-0.4072266,0.0292969-0.8149414,0.0576172-1.2211914,0.0595703c-1.6757813,0.0537109-2.9858398-0.5439453-3.6860352-1.5585938   c-0.5893555-0.8544922-0.6411133-1.8603516-0.6870117-2.7490234c-0.0170898-0.3261719-0.0327148-0.6533203-0.078125-0.9697266   c-0.3476563-2.4365234-2.6455078-4.1914063-4.769043-4.8496094c-2.4902344-0.7714844-5.2460938-0.5400391-7.6791992-0.3398438   c-1.6743164,0.1386719-3.1494141,0.3193359-4.2446289,1.1201172c-0.9775391,0.7148438-1.6743164,1.8779297-2.1303711,3.5546875   c-0.3203125,1.1796875-0.6616211,2.3447266-1.0014648,3.5048828c-0.8457031,2.8886719-1.6450195,5.6171875-2.1279297,8.5068359   c-0.0400391,0.2373047-0.0844727,0.4785156-0.1298828,0.7207031c-0.21875,1.1748047-0.4448242,2.3896484-0.0683594,3.3730469   C6.8168945,40.6601563,7.2104492,41.6875,9.3125,41.6875c0.4140625,0,0.75,0.3359375,0.75,0.75S9.7265625,43.1875,9.3125,43.1875z" fill="#373684"/><path d="M18.9414063,15.7109375c-2.6572266,0-5.1621094-2.1123047-5.5844727-4.7099609   c-0.4482422-2.7558594,1.4604492-5.6601563,4.1669922-6.34375c0.4072266-0.1025391,0.8320313-0.1542969,1.2626953-0.1542969   c2.3833008,0,4.6611328,1.5820313,5.4155273,3.7617188c0.3549805,1.0263672,0.402832,2.1708984,0.1337891,3.2226563   c-0.5771484,2.2636719-2.6870117,4.0351563-5.0166016,4.2099609   C19.1933594,15.7070313,19.0673828,15.7109375,18.9414063,15.7109375z M18.7866211,6.0029297   c-0.3066406,0-0.6079102,0.0361328-0.8955078,0.109375c-1.9492188,0.4912109-3.3764648,2.6640625-3.0537109,4.6484375   c0.3237305,1.9882813,2.309082,3.5927734,4.3696289,3.4404297c1.6791992-0.1259766,3.2592773-1.4521484,3.6757813-3.0849609   c0.1967773-0.7705078,0.1621094-1.609375-0.0981445-2.3613281C22.2324219,7.1601563,20.5512695,6.0029297,18.7866211,6.0029297z" fill="#373684"/><path d="M38.0615234,38.7451172c-0.9560547,0-2.050293-0.0644531-3.0258789-0.5585938   c-1.2387695-0.6289063-1.9379883-2.0449219-1.8251953-3.6953125c0.027832-0.4140625,0.4013672-0.7158203,0.7988281-0.6972656   c0.4135742,0.0283203,0.7255859,0.3857422,0.6972656,0.7988281c-0.0708008,1.0400391,0.3154297,1.9042969,1.0073242,2.2558594   c0.824707,0.4179688,1.8886719,0.4023438,2.8364258,0.3925781l23.0620117-0.2919922   c1.0102539-0.0126953,2.0405273-0.0742188,2.5688477-0.6767578c0.4741211-0.5410156,0.4780273-1.4384766,0.4389648-2.3876953   L64.0039063,19.046875c-0.0351563-0.8447266-0.1098633-1.7050781-0.5932617-2.1416016   c-0.4521484-0.4082031-1.2314453-0.4306641-2.0532227-0.4199219l-24.7553711,0.3339844   c-0.6455078,0.0097656-1.1679688,0.0361328-1.5239258,0.2773438c-0.6450195,0.4384766-0.6782227,1.5449219-0.6259766,2.5693359   c0.0708008,1.3837891,0.1201172,3.0341797,0.1699219,4.6845703c0.0493164,1.6396484,0.0981445,3.2783203,0.168457,4.6533203   c0.0209961,0.4130859-0.296875,0.765625-0.7109375,0.7871094c-0.402832,0.0507813-0.7661133-0.2978516-0.7871094-0.7109375   c-0.0708008-1.3837891-0.1201172-3.0341797-0.1699219-4.6845703c-0.0488281-1.6396484-0.0981445-3.2783203-0.168457-4.6533203   c-0.0737305-1.4404297,0.0209961-3.0292969,1.2807617-3.8857422c0.7568359-0.5136719,1.675293-0.5273438,2.3461914-0.5371094   l24.7553711-0.3339844c1.0898438-0.0146484,2.2241211,0.0341797,3.0795898,0.8066406   c0.9907227,0.8945313,1.0507813,2.3330078,1.0869141,3.1923828l0.6162109,14.8378906   c0.0498047,1.2158203,0.0288086,2.4814453-0.8100586,3.4384766c-0.9355469,1.0664063-2.3886719,1.1728516-3.6777344,1.1884766   l-23.0625,0.2919922C38.4057617,38.7431641,38.2358398,38.7451172,38.0615234,38.7451172z" fill="#373684"/><path d="M61.0834961,20.9238281h-0.0004883l-22.8334961-0.0146484c-0.4140625,0-0.75-0.3359375-0.7495117-0.75   s0.3359375-0.75,0.75-0.75h0.0004883l22.8334961,0.0146484c0.4140625,0,0.75,0.3359375,0.7495117,0.75   S61.4975586,20.9238281,61.0834961,20.9238281z" fill="#373684"/><path d="M46.581543,25.2021484c-0.0048828,0-0.0097656,0-0.0141602,0l-8.9165039-0.1650391   c-0.4140625-0.0078125-0.7436523-0.3496094-0.7363281-0.7636719c0.0078125-0.4091797,0.3417969-0.7363281,0.7495117-0.7363281   c0.0048828,0,0.0097656,0,0.0141602,0l8.9165039,0.1650391c0.4140625,0.0078125,0.7436523,0.3496094,0.7363281,0.7636719   C47.3232422,24.875,46.9892578,25.2021484,46.581543,25.2021484z" fill="#373684"/><path d="M39.4804688,31.8632813c-0.3051758,0-0.5922852-0.1875-0.7036133-0.4912109   c-0.1435547-0.3886719,0.0556641-0.8193359,0.4443359-0.9628906l14.6450195-5.3916016   c0.3901367-0.1416016,0.8203125,0.0566406,0.9628906,0.4453125c0.1430664,0.3886719-0.0556641,0.8193359-0.4443359,0.9628906   l-14.6450195,5.3916016C39.6542969,31.8486328,39.5664063,31.8632813,39.4804688,31.8632813z" fill="#373684"/></g></svg>